<?xml version="1.0" encoding="UTF-8"?>
<svg id="Layer_1" data-name="Layer 1" xmlns="http://www.w3.org/2000/svg" viewBox="0 0 1296 1296">
  <path d="M681.7,155.83l-54.6,194.1-60.01,169.25c-16.98-24.59-27.88-58.85-33.79-88.23-21-104.5,41.52-190.31,82.52-280,13.55-29.65,32.89-89.28,55.18-111.08,15.22-14.88,25.98,10.07,31.77,21.82,27.61,56,47.07,156.08,43.35,218.23-4.45,74.41-58.65,155.27-107.97,208.46-9.16,9.88-25.46,27.78-35.52,35.53-7.06,5.44-10.87,2.49-8.78-6.06,3.05-12.46,13.61-31.38,18.78-44.26,21.29-53.02,40.82-106.33,53.67-162.21,11.79-51.3,18.64-102.98,15.39-155.55Z"/>
  <path d="M827.86,689.49c-2.39-.51-3.29,1.23-4.71,2.65-27.78,27.6-57.55,70.27-78.98,103.38-37.06,57.28-70.03,116.88-87.56,183.29-3.63,13.75-5.67,32.39-10.12,44.85-.69,1.94-1.28,3.74-3,5.04-7.83-19.35-12.05-41.45-14.07-62.35-7.95-82.38,43.49-161.59,97.19-219.24,27.6-29.63,59.14-50.87,89.2-77.06,4.91-4.28,25.45-22.09,27.5-26.14,2-3.96-2.79-3.29-3.34-4.1-1.17-1.72,16.02-22.82,18.48-26.34,6.11-8.7,41.24-63.45,47.85-63.41l2.08,3.35c-4.38,67.64-21.72,134.83-44.29,198.45-37.07,104.49-91.58,201.27-174.32,276.21-3.31,3-16.15,14.92-18.84,16.03-3.48,1.43-8.1.95-9.14-2.93-.63-2.37,10.72-41.41,12.55-47.3,20.99-67.61,66.35-148.71,100.53-211.88,16.89-31.22,35.9-61.38,52.99-92.48Z"/>
  <path d="M329.63,246.22C119.04,415.5,54.19,708.71,194.76,945.14c33.92,57.06,81.95,106.09,129.84,151.07,4.09,3.85,7.34,10.06,13.2,12.94l1.31-4c58.54,44.88,124.49,81.32,196.95,98.04,35.31,8.15,71.72,11.06,107.93,10.73l10.91,46.75c-164.57,2.97-319.46-87.01-416.22-215.99-73.14-97.5-122.88-197.44-134.86-321.02C74.95,425.99,311.42,141.26,607.45,110.33l3.16,1.91-8.91,17.89c-98.53,11.71-195.14,54.26-272.07,116.1Z"/>
  <path d="M1017.39,255.91c223.46,225.14,234.26,548.03,39.72,796.22-88.2,112.53-213.83,191.08-358.44,204.61l-14.28-45.67c106.6-9.24,208.15-54.86,290.25-122.07,137.78-112.78,207.31-258.85,200.55-439.14-8.71-232.25-176.04-459.08-404.97-514.84-5.49-1.34-14.68-1.86-19.21-3.58-3.56-1.35-2.96-15.67-4.94-19.86,31.92,4.21,64.22,14.02,94.19,25.8,67.13,26.39,126.6,67.62,177.13,118.53ZM947.2,1134.65c-2.7-.02-5.43-.49-8.02.68-1.74.79-13.7,9.59-16.59,11.62-4.43,3.11-6.49,8.29-14.07,9.34l1.14,2.46c-6.46-.79-10.07,4.93-16.22,6.06.05,6.45-1.44,1.18-5.18,2.64-1.45.56-4.79,4.35-6.71,5.38l2.64,4.7c2.14.32.73-2.25,2.93-3.12,2.01-.8,4.25-.5,6.28-1.12l.16-3.8,5.72,1.18c10.08-7.55,21.26-13.6,31.44-20.99,1.63-1.19,18.8-13.31,16.46-15.03ZM866.74,1184.26c-8.88-4.32-10.74,3.54-13.3,4.68-1.2.54-3.64-.97-5.77-.44-2.65.66-6.98,5.23-10.98,5.05l-.79,2.75,4.11.68-.09,3.35,17.89-8.25,8.93-7.81Z"/>
  <path d="M796.63,422.85c7.27-2.01,8.07,9.81,8.48,15.17,5.99,77.24-39.78,201.03-77.59,268.45-17.81,31.75-39.61,57.82-60.32,87.17-11.67,16.54-25.81,44.35-38.59,57.95-8.27,8.8-18.24,5.44-23.02-4.88-6.11-13.2-7.87-52.24-8.42-68.01-2-57.19.77-79.08,31.68-126.65,28.87-44.44,70.12-82.9,100.87-127.07,16.69-23.98,29.14-50.17,45.26-74.08,2.49-3.69,19.93-27.57,21.64-28.05Z"/>
  <path d="M597.24,141.08c-12.09,23.19-36.53,22.31-58.99,28.82C225.84,260.46,46.6,608.53,206.36,906.72c67.41,125.82,200.48,241.07,342.57,270.2,28.92,5.93,58.26,7.72,87.72,8.59l2.17,12.15c-92.04,3.15-180.26-27.36-256.52-76.68-191.37-123.78-291.23-340.12-239.18-567.18,32.19-140.38,141.04-280.73,266.85-349.94,56.93-31.32,122.41-55.91,187.28-62.78Z"/>
  <path d="M1028.43,1018.76c-78.44,82.57-188.97,151.09-302.16,171.83-15.19,2.78-32.13,5.08-47.32,5.13l-2.5-9.3,2.16-1.93c153.34-11.68,286.44-102.67,375.61-223.74,197.3-267.86,64.03-669.24-241.75-783.5-13.36-4.99-48.02-13.33-56.19-21.58-3.2-3.23-6.89-8.47-6.18-13.25,44.61,5.33,89.43,23.71,128.75,44.88,225.75,121.55,336.19,393.68,265.08,640.57-22.21,77.1-61.03,133.56-115.49,190.89Z"/>
  <path d="M506.05,300.64c-.98,4.31,1.23,8.7,1.22,12.59-.05,12.12-3.43,27.69-3.88,40.38-2.47,69.52,15.83,144.73,62.97,197.12-.92,12.06-.94,24.08-1.32,36.16-1.33,41.91-1.51,84-1.4,126.11.01,4.9,2.01,8.92.06,14.02-22.22-11.09-39.15-31.7-53.37-51.87-76.24-108.13-61.33-245.05-11.98-361.44,1.45-3.41,2.9-8.49,4.69-11.36.87-1.4-.06-2.35,3.02-1.71Z"/>
  <path d="M673.66,1259.33l-4.66-1.36c-15.04-49.79-28.37-100.18-41.1-150.64-9.81-38.9-17.71-78.39-27.56-117.26-3.82-15.07-5.94-34.02-24.55-37.29-7.36-1.29-12.14,8.42-23.47-1.84-40.98-37.12-65.77-96.13-78.87-149.07-13.98-56.47-14.79-114.84-15.65-172.72l13.67,25.87c22.1,46.45,70.35,74.49,88.26,122.25,18.09,48.25,22.36,109.12,34.14,160.28,24.25,105.32,54.79,209.64,79.19,315.02l.6,6.76Z"/>
  <path d="M774.24,263.09c2.61-.4,3.57,1.04,3.99,3.37,1.68,9.26,2.5,25.13,2.76,34.79,2.42,90.3-34.4,178.66-89.93,248.07-13.05,16.31-27.96,31.12-41.5,47-10.86,12.74-30.65,42.92-42.86,51-7.1,4.69-21.73,1.17-22.94-8.06-3.07-23.38,3.93-54.84,6.14-78.47,87.75-78.6,165.25-178.16,184.33-297.7Z"/>
  <path d="M445.74,786.01l2.66-5.35,1.39,20.09,2.63-1.33c5.89,26.93,14.45,53.54,24.86,79.07,6.89,16.91,16.44,38.77,26.89,53.56,14.34,20.3,38.33,35.32,52.18,56.43l-.66-16.08c.82-1.13,22.6,10.03,24.81,12.05,5.23,4.76,17.46,31.46,13.82,37.35-9.72,4.05-18.66,8.67-28.87,3.18-11.83-6.36-35.53-32.75-44.61-43.89-92.88-113.96-115.38-288.21-92.16-429.99.75-4.56,1.62-10.41,2.68-14.76.33-1.34.39-4.04,2.28-3.72,1.6,18.5,1.61,37.09,1.42,55.7-.51,48.53-4.79,97.48,1.5,145.87,2.26,17.39,6.8,34.48,9.18,51.84Z"/>
  <path d="M589.19,1134.63c-25.33-4.52-34.27-32.71-50.24-49.64l-16.8-13.36c37.28-1.2,62.35,28.04,67.03,63Z"/>
  <path d="M758.13,1085.03l-24.12,32.46c-9.69,9.02-20.85,17.57-34.87,17.13,10.56-25.6,30.68-45.59,58.99-49.59Z"/>
  <path d="M947.2,1134.65c2.34,1.72-14.83,13.85-16.46,15.03-10.18,7.39-21.36,13.44-31.44,20.99l-5.72-1.18-.16,3.8c-2.03.62-4.27.32-6.28,1.12-2.2.88-.79,3.45-2.93,3.12l-2.64-4.7c1.92-1.03,5.26-4.82,6.71-5.38,3.73-1.45,5.22,3.81,5.18-2.64,6.15-1.13,9.76-6.85,16.22-6.06l-1.14-2.46c7.58-1.05,9.64-6.23,14.07-9.34,2.89-2.03,14.85-10.84,16.59-11.62,2.59-1.17,5.32-.7,8.02-.68Z"/>
  <path d="M866.74,1184.26l-8.93,7.81-17.89,8.25.09-3.35-4.11-.68.79-2.75c4,.19,8.33-4.39,10.98-5.05,2.13-.53,4.57.98,5.77.44,2.55-1.15,4.41-9,13.3-4.68Z"/>
</svg>